/* XPM */
static char *tux[] = {
/* columns rows colors chars-per-pixel */
"24 24 147 2 ",
"   c #010202",
".  c #0D0C05",
"X  c #010208",
"o  c #080708",
"O  c #0C0D0D",
"+  c #13130F",
"@  c #141414",
"#  c #1A1A1A",
"$  c #201E1E",
"%  c #1E2026",
"&  c #212122",
"*  c #252528",
"=  c #2B2B2B",
"-  c #2F3131",
";  c #333435",
":  c #373738",
">  c #3B3C3C",
",  c #6A653B",
"<  c #716A3B",
"1  c #3F3E40",
"2  c #494A4B",
"3  c #545453",
"4  c #56585F",
"5  c #585858",
"6  c #575761",
"7  c #606162",
"8  c #6D6D6D",
"9  c #737373",
"0  c #7D7E7D",
"q  c #B59303",
"w  c #CDA600",
"e  c #D9AE00",
"r  c #E2B500",
"t  c #F5BC00",
"y  c #F0BC1D",
"u  c #DCAE31",
"i  c #F3BF20",
"p  c #E0B33B",
"a  c #FAC700",
"s  c #FECA00",
"d  c #FFD203",
"f  c #FFDA02",
"g  c #FCD30B",
"h  c #FFDE0C",
"j  c #F3C919",
"k  c #FFD912",
"l  c #FFE304",
"z  c #FFE01E",
"x  c #DBC125",
"c  c #F4DB27",
"v  c #FFD92A",
"b  c #F6DF33",
"n  c #FFD03F",
"m  c #FFE627",
"M  c #FFE32C",
"N  c #FFEE32",
"B  c #FFE53C",
"V  c #B7A744",
"C  c #B8A54B",
"Z  c #BEAB50",
"A  c #96936A",
"S  c #95937C",
"D  c #C5B966",
"F  c #E1CB40",
"G  c #E4D24F",
"H  c #E4D45A",
"J  c #FFE346",
"K  c #FFEC40",
"L  c #FFE448",
"P  c #FFEE4D",
"I  c #FFF34C",
"U  c #FFED5B",
"Y  c #FFF753",
"T  c #CEC06C",
"R  c #D3C570",
"E  c #D6CB74",
"W  c #E9C460",
"Q  c #FFF760",
"!  c #FFE074",
"~  c #FAEF79",
"^  c #FFF377",
"/  c #FFFF73",
"(  c #FBF179",
")  c #838383",
"_  c #8A8A8B",
"`  c #8E919F",
"'  c #909090",
"]  c #95979E",
"[  c #9D9D9E",
"{  c #ACA98E",
"}  c #B0AC8E",
"|  c #A0A09D",
" . c #B2AF91",
".. c #B4B394",
"X. c #BBB99E",
"o. c #8F92A1",
"O. c #9D9FA1",
"+. c #9A9DAC",
"@. c #9DA1A9",
"#. c #A2A2A2",
"$. c #A2A4AC",
"%. c #A7A9AB",
"&. c #AAABAB",
"*. c #ACAEB6",
"=. c #A7ABB9",
"-. c #B2B2B5",
";. c #B5B6BC",
":. c #B7B8BC",
">. c #BABBBC",
",. c #DEC98B",
"<. c #D8D084",
"1. c #D3CC9A",
"2. c #FFFF84",
"3. c #FFFD8D",
"4. c #B6B8C2",
"5. c #BCBEC0",
"6. c #BDBEC9",
"7. c #BFC2C3",
"8. c #C0C2C3",
"9. c #C4C5CB",
"0. c #C7C9CB",
"q. c #CCCCCE",
"w. c #C3C7D0",
"e. c #CCCED0",
"r. c #D2D4D5",
"t. c #D4D6D8",
"y. c #D7D9DA",
"u. c #DBDCDD",
"i. c #DEDFE1",
"p. c #D9DBED",
"a. c #D8DBF1",
"s. c #DFE0E1",
"d. c #DCE1F0",
"f. c #E4E4E5",
"g. c #E5E6E9",
"h. c #EBECED",
"j. c #EEF0EF",
"k. c #FEFAEF",
"l. c #EFEFF0",
"z. c #E8EEFB",
"x. c #F3F3F4",
"c. c #F7F8F7",
"v. c #FFFEF4",
"b. c #F6F7F8",
"n. c #F7F8F9",
"m. c #FCFCFD",
"M. c None",
/* pixels */
"M.M.M.M.M.M.M.M.M.M.M.M.M.M.M.M.M.M.M.M.M.M.M.M.",
"M.M.M.M.M.M.M.M.M.M.M.M.M.M.M.M.M.M.M.M.M.M.M.M.",
"M.M.M.M.M.M.M.M.M.M.M.M.M.M.M.M.M.M.M.M.M.M.M.M.",
"M.M.M.M.M.M.M.M.M.M.M.#.[ M.M.M.M.M.M.M.M.M.M.M.",
"M.M.M.M.M.M.M.M._ #.&.#.#.&.#.8 M.M.M.M.M.M.M.M.",
"M.M.M.M.M.M.3 ' &._ 8 9 8 9 &.-.) M.M.M.M.M.M.M.",
"M.M.M.M.M.2 0 u.v.n.&.3 9 g.m.m.>.8 M.M.M.M.M.M.",
"M.M.M.M.= 5 i.q.= n.m.g.c.m.e.= b.-.2 M.M.M.M.M.",
"M.M.M.M.$ &.m.i.' m.m.k.m.m.x._ x.b.) # M.M.M.M.",
"M.M.M.o 1 x.x.v.m.k.J l g ! m.m.b.l.i.$ O M.M.M.",
"M.M.M.o _ b.h.x.m.m.W g j ,.m.n.l.g.l.7 o M.M.M.",
"M.# @ o 9.f.g.l.v.m.z.p.a.d.n.b.h.i.u.&.  @ # M.",
"M.    # y.u.f.h.x.m.v.x.b.l.x.j.f.u.e.5.@     M.",
"M.M.  - t.r.u.g.h.x.b.c.b.x.h.g.u.r.7.7.*   M.M.",
"M.M.  : 9.9.t.i.f.g.j.h.h.g.f.u.r.9.:.5.>   M.M.",
"M.M.  ; ;.*.;.9.r.u.u.s.u.u.r.q.4.@.] :.:   M.M.",
"M.M.X % $...E  .6.q.q.e.q.q.9.=. .<.X.*.*   M.M.",
"M.M.M.. A 2./ G [ ;.5.5.5.:.@.@.H / 3.} @ M.M.M.",
"M.M.M.R ( Q Y I V +.%.*.%.] o.D I Y Q ~ T M.M.M.",
"M.M.M.^ U P K N c S +.O.O.o.{ M N K P U ^ M.M.M.",
"M.M.M.v L B M m h x [ $.$.&.F k k M B L m M.M.M.",
"M.M.M.s d k k d d d 1.7.9.1.d s g k k f f M.M.M.",
"M.M.M.M.w r a s s t , 6 6 < t s s s e q M.M.M.M.",
"M.M.M.M.M.M.M.u y C M.M.M.M.Z j p M.M.M.M.M.M.M."
};
